<svg xmlns="http://www.w3.org/2000/svg" xmlns:xlink="http://www.w3.org/1999/xlink" width="200" zoomAndPan="magnify" viewBox="0 0 150 149.999998" height="200" preserveAspectRatio="xMidYMid meet" version="1.0"><path fill="#00685e" d="M 84.792969 70.464844 C 78.425781 69.839844 72.417969 68.542969 67.105469 66.648438 L 80.851562 58.65625 C 85.273438 56.089844 92.078125 55.875 96.066406 58.179688 L 108.660156 65.425781 L 110.007812 69.3125 C 101.714844 70.824219 92.988281 71.257812 84.792969 70.464844 Z M 146.011719 86.972656 L 134.183594 80.160156 L 130.410156 91.054688 C 128.296875 97.171875 119.644531 97.171875 117.527344 91.054688 L 112.3125 76.007812 C 106.785156 76.992188 101.136719 77.589844 95.488281 77.785156 C 95.539062 81.695312 96.1875 85.535156 97.484375 89.300781 C 100.464844 97.964844 106.617188 106.125 115.367188 113.082031 L 133.945312 102.308594 L 145.21875 95.78125 C 149.664062 93.191406 150 89.253906 146.011719 86.972656 Z M 88.375 97.675781 C 85.058594 91.269531 83.328125 84.480469 83.398438 77.542969 C 82.632812 77.496094 81.886719 77.421875 81.140625 77.351562 C 72.65625 76.535156 64.820312 74.640625 57.996094 71.953125 L 34.105469 85.796875 C 29.683594 88.367188 29.347656 92.300781 33.335938 94.605469 L 45.929688 101.851562 C 59.652344 98.851562 74.097656 97.390625 88.375 97.675781 Z M 92.917969 104.925781 C 80.5625 104.109375 67.5625 104.925781 55.085938 107.15625 L 83.257812 123.402344 C 87.246094 125.707031 94.046875 125.488281 98.46875 122.921875 L 106.351562 118.339844 C 100.992188 114.1875 96.476562 109.699219 92.917969 104.925781 Z M 92.917969 104.925781 " fill-opacity="1" fill-rule="nonzero"/><path fill="#57b6b2" d="M 83.929688 128.394531 L 86.476562 129.855469 L 78.882812 134.25 L 77.632812 134.992188 L 0 90.238281 L 2.523438 88.773438 L 77.128906 45.484375 L 78.402344 46.226562 L 86.042969 50.617188 L 83.519531 52.082031 L 77.152344 48.433594 L 65.757812 55.035156 L 69.582031 57.242188 L 67.054688 58.707031 L 63.234375 56.5 L 50.59375 63.839844 L 54.414062 66.050781 L 51.890625 67.511719 L 48.070312 65.304688 L 35.425781 72.648438 L 39.25 74.855469 L 36.726562 76.320312 L 32.902344 74.113281 L 20.261719 81.457031 L 24.082031 83.664062 L 21.558594 85.125 L 17.714844 82.917969 L 5.070312 90.261719 L 17.785156 97.605469 L 21.246094 95.589844 L 23.792969 97.054688 L 20.332031 99.070312 L 33.070312 106.414062 L 36.53125 104.394531 L 39.082031 105.859375 L 35.621094 107.875 L 48.332031 115.21875 L 51.792969 113.203125 L 54.34375 114.667969 L 50.882812 116.683594 L 63.621094 124.027344 L 67.082031 122.011719 L 69.628906 123.472656 L 66.167969 125.488281 L 77.609375 132.089844 Z M 146.972656 43.300781 L 134.210938 80.160156 L 130.4375 91.054688 C 128.320312 97.171875 119.667969 97.171875 117.554688 91.054688 L 112.335938 76.007812 L 110.03125 69.3125 L 108.683594 65.425781 L 101.015625 43.277344 C 99.671875 39.386719 99.648438 35.140625 100.992188 31.253906 C 104.308594 21.796875 113.347656 15.007812 123.996094 15.007812 C 134.808594 15.007812 143.96875 22.039062 147.140625 31.78125 C 148.367188 35.523438 148.246094 39.582031 146.972656 43.300781 Z M 134.785156 39.414062 C 134.785156 33.460938 129.957031 28.636719 123.996094 28.636719 C 118.035156 28.636719 113.203125 33.460938 113.203125 39.414062 C 113.203125 45.363281 118.035156 50.1875 123.996094 50.1875 C 129.957031 50.1875 134.785156 45.363281 134.785156 39.414062 Z M 134.785156 39.414062 " fill-opacity="1" fill-rule="nonzero"/><path fill="#ffffff" d="M 123.996094 50.1875 C 129.957031 50.1875 134.785156 45.363281 134.785156 39.414062 C 134.785156 33.460938 129.957031 28.636719 123.996094 28.636719 C 118.035156 28.636719 113.203125 33.460938 113.203125 39.414062 C 113.203125 45.363281 118.035156 50.1875 123.996094 50.1875 Z M 123.996094 50.1875 " fill-opacity="1" fill-rule="nonzero"/></svg>